<?xml version="1.0" encoding="UTF-8" standalone="no"?>
<svg
   viewBox="0 0 22 22"
   version="1.1"
   id="svg6"
   sodipodi:docname="office-chart-pie.svg"
   inkscape:version="1.1 (c68e22c387, 2021-05-23)"
   xmlns:inkscape="http://www.inkscape.org/namespaces/inkscape"
   xmlns:sodipodi="http://sodipodi.sourceforge.net/DTD/sodipodi-0.dtd"
   xmlns:xlink="http://www.w3.org/1999/xlink"
   xmlns="http://www.w3.org/2000/svg"
   xmlns:svg="http://www.w3.org/2000/svg"
   xmlns:rdf="http://www.w3.org/1999/02/22-rdf-syntax-ns#"
   xmlns:cc="http://creativecommons.org/ns#"
   xmlns:dc="http://purl.org/dc/elements/1.1/">
  <metadata
     id="metadata10">
    <rdf:RDF>
      <cc:Work
         rdf:about="">
        <dc:format>image/svg+xml</dc:format>
        <dc:type
           rdf:resource="http://purl.org/dc/dcmitype/StillImage" />
      </cc:Work>
    </rdf:RDF>
  </metadata>
  <sodipodi:namedview
     pagecolor="#ffffff"
     bordercolor="#666666"
     borderopacity="1"
     objecttolerance="10"
     gridtolerance="10"
     guidetolerance="10"
     inkscape:pageopacity="0"
     inkscape:pageshadow="2"
     inkscape:window-width="1920"
     inkscape:window-height="1007"
     id="namedview8"
     showgrid="true"
     inkscape:zoom="10.727273"
     inkscape:cx="-7.2245761"
     inkscape:cy="11.18644"
     inkscape:window-x="0"
     inkscape:window-y="0"
     inkscape:window-maximized="1"
     inkscape:current-layer="svg6"
     inkscape:document-rotation="0"
     inkscape:pagecheckerboard="0">
    <inkscape:grid
       type="xygrid"
       id="grid885" />
  </sodipodi:namedview>
  <defs
     id="defs3051">
    <linearGradient
       inkscape:collect="always"
       id="linearGradient1311">
      <stop
         style="stop-color:#ffccaa;stop-opacity:1"
         offset="0"
         id="stop1307" />
      <stop
         style="stop-color:#ffe680;stop-opacity:1"
         offset="1"
         id="stop1309" />
    </linearGradient>
    <style
       type="text/css"
       id="current-color-scheme">
      .ColorScheme-Text {
        color:#eff0f1;
      }
      </style>
    <linearGradient
       inkscape:collect="always"
       xlink:href="#linearGradient1311"
       id="linearGradient872-3-3"
       x1="32.009319"
       y1="28.016975"
       x2="31.060434"
       y2="2.9231923"
       gradientUnits="userSpaceOnUse"
       gradientTransform="matrix(0,0.26972468,-0.28896723,0,19.560644,2.3738149)" />
    <linearGradient
       inkscape:collect="always"
       xlink:href="#linearGradient1311"
       id="linearGradient1313"
       x1="3"
       y1="11"
       x2="19"
       y2="11"
       gradientUnits="userSpaceOnUse" />
  </defs>
  <g
     data-name="Pie chart"
     id="g8"
     transform="matrix(0,0.26666609,-0.26666609,0,19.592337,2.7591824)" />
  <path
     d="m 16.84031,5.9341794 a 0.22770618,0.212543 0 0 0 -0.02887,0.00539 0.28347689,0.26459993 0 0 0 -0.09936,0.059872 l -5.158056,4.8145506 a 0.28896733,0.26972471 0 0 0 0,0.381391 l 5.15806,4.814584 a 0.28347689,0.26459993 0 0 0 0.09936,0.05987 0.22770618,0.212543 0 0 0 0.02886,0.0053 0.28896733,0.26972471 0 0 0 0.08662,0.01217 c 0.0021,0 0.0053,0 0.0073,0 a 0.27885339,0.26028431 0 0 0 0.03376,-0.0086 0.27134029,0.25327148 0 0 0 0.07,-0.01835 0.27654175,0.25812649 0 0 0 0.0431,-0.02698 0.28636653,0.26729714 0 0 0 0.04012,-0.02509 c 0.0046,-0.0039 0.0058,-0.0097 0.01059,-0.01429 0.0033,-0.0047 0.01017,-0.0055 0.01305,-0.0098 a 8.6629499,8.0860769 0 0 0 0,-9.9620086 c -0.0028,-0.00429 -0.0099,-0.00628 -0.01305,-0.00988 -0.003,-0.00378 -0.0053,-0.010226 -0.01059,-0.014297 a 0.28636653,0.26729714 0 0 0 -0.04012,-0.025091 0.27654175,0.25812649 0 0 0 -0.0431,-0.026966 0.27134029,0.25327148 0 0 0 -0.07,-0.018347 0.27885339,0.26028431 0 0 0 -0.03376,-0.00862 c -0.0019,0 -0.0051,0 -0.0073,0 a 0.28896733,0.26972471 0 0 0 -0.08662,0.015371 z m 1.564472,5.0708246 a 7.988211,7.4562698 0 0 1 -1.518817,4.404606 l -4.718829,-4.404606 4.718829,-4.4046038 a 7.988211,7.4562698 0 0 1 1.518817,4.4046038 z"
     id="path6-5-6"
     style="fill:url(#linearGradient872-3-3);fill-opacity:1.0;stroke-width:0.279185" />
  <path
     d="m 10.999792,18.999986 h -0.5 c -0.276375,0 -0.499969,-0.224124 -0.499969,-0.5 0,-0.276374 0.223594,-0.5 0.499969,-0.5 h 0.5 c 3.865906,0 6.999875,-3.13425 6.999875,-7.000062 0,-3.8656873 -3.133969,-6.9999373 -6.999875,-6.9999373 -3.865656,0 -6.999907,3.13425 -6.999907,6.9999373 0,2.290094 1.104751,4.317468 2.804656,5.594312 l -0.0051,0.0073 c 0.120849,0.09136 0.200443,0.234888 0.200443,0.39845 0,0.275844 -0.223626,0.5 -0.5,0.5 -0.112563,0 -0.214844,-0.03906 -0.298594,-0.101562 l -0.0012,0.0019 C 4.257281,15.940938 3,13.617219 3,10.999937 3,6.5815 6.581469,3 10.999875,3 15.417781,3 19,6.5815 19,10.999937 19,15.418031 15.417781,19 10.999875,19 Z m -2.499719,-1 c 0.275625,0 0.4995,0.223626 0.4995,0.5 0,0.275876 -0.223875,0.5 -0.4995,0.5 -0.276375,0 -0.5,-0.224124 -0.5,-0.5 0,-0.276374 0.223625,-0.5 0.5,-0.5 z m 9.499594,-7.000062 v 0 0 0 0 0 l 0.04413,-0.01015 -0.04215,0.0097 0.0076,-0.0085 8e-4,0.005 0.03769,-0.01851 -0.0548,0.0193 0.01943,0.0032 0.0065,8.67e-4 -0.01926,-8.67e-4 v 0 l 0.01273,-3.1e-5 0.0065,8.67e-4 0.02487,-0.01101 z"
     id="path2"
     sodipodi:nodetypes="ssssssssccssccssssssssscccccccccccccccccccc"
     style="fill:url(#linearGradient1313);fill-opacity:1;stroke-width:0.03125;enable-background:new" />
</svg>
